<svg width="30" height="30" viewBox="0 0 30 30" fill="none" xmlns="http://www.w3.org/2000/svg">
<path d="M14.1667 17.8333C14.1667 16.7288 13.2712 15.8333 12.1667 15.8333H5.83333C5.3731 15.8333 5 15.4602 5 15C5 14.5398 5.3731 14.1667 5.83333 14.1667H12.1667C13.2712 14.1667 14.1667 13.2712 14.1667 12.1667V5.83333C14.1667 5.3731 14.5398 5 15 5C15.4602 5 15.8333 5.3731 15.8333 5.83333V12.1667C15.8333 13.2712 16.7288 14.1667 17.8333 14.1667H24.1667C24.6269 14.1667 25 14.5398 25 15C25 15.4602 24.6269 15.8333 24.1667 15.8333H17.8333C16.7288 15.8333 15.8333 16.7288 15.8333 17.8333V24.1667C15.8333 24.6269 15.4602 25 15 25C14.5398 25 14.1667 24.6269 14.1667 24.1667V17.8333Z" fill="#AC91DA"/>
</svg>
