<svg width="24" height="28" viewBox="0 0 24 28" fill="none" xmlns="http://www.w3.org/2000/svg">
<path d="M17.3906 10.6179L12.2344 7.63904C12.1631 7.5979 12.0823 7.57624 12 7.57624C11.9177 7.57624 11.8369 7.5979 11.7656 7.63904L6.60936 10.6203C6.53818 10.6614 6.47905 10.7205 6.43791 10.7917C6.39677 10.8628 6.37507 10.9436 6.37499 11.0258V16.9765C6.37507 17.0587 6.39677 17.1395 6.43791 17.2106C6.47905 17.2818 6.53818 17.3409 6.60936 17.382L11.7656 20.3609C11.8373 20.4007 11.918 20.4217 12 20.4219C12.0823 20.4217 12.1632 20.3999 12.2344 20.3586L17.3906 17.3797C17.4618 17.3386 17.5209 17.2795 17.5621 17.2083C17.6032 17.1371 17.6249 17.0564 17.625 16.9742V11.0234C17.6249 10.9412 17.6032 10.8605 17.5621 10.7893C17.5209 10.7181 17.4618 10.659 17.3906 10.6179ZM12 8.58826L16.2375 11.0328L12 13.4586L7.78124 11.0258L12 8.58826ZM7.31249 11.8367L11.5312 14.2719V19.1422L7.31249 16.707V11.8367ZM12.4687 19.1422V14.2719L16.6875 11.8554V16.7047L12.4687 19.1422ZM10.8281 3.18123L11.5312 2.47811V6.03123C11.5312 6.15555 11.5806 6.27478 11.6685 6.36269C11.7564 6.4506 11.8757 6.49998 12 6.49998C12.1243 6.49998 12.2435 6.4506 12.3314 6.36269C12.4194 6.27478 12.4687 6.15555 12.4687 6.03123V2.47576L13.1719 3.17889C13.2155 3.22275 13.2673 3.25756 13.3245 3.28129C13.3816 3.30502 13.4428 3.31722 13.5047 3.31717C13.5978 3.31771 13.6889 3.29051 13.7665 3.23904C13.8441 3.18757 13.9046 3.11416 13.9403 3.02818C13.976 2.94219 13.9853 2.84751 13.967 2.75622C13.9487 2.66494 13.9036 2.58117 13.8375 2.51561L12.3305 1.01326C12.2426 0.925957 12.1238 0.876953 12 0.876953C11.8762 0.876953 11.7573 0.925957 11.6695 1.01326L10.1625 2.51561C10.0742 2.60387 10.0246 2.72359 10.0246 2.84842C10.0246 2.97325 10.0742 3.09296 10.1625 3.18123C10.2508 3.2695 10.3705 3.31909 10.4953 3.31909C10.6201 3.31909 10.7398 3.2695 10.8281 3.18123ZM13.1719 24.8187L12.4687 25.5219V21.9687C12.4687 21.8444 12.4194 21.7252 12.3314 21.6373C12.2435 21.5494 12.1243 21.5 12 21.5C11.8757 21.5 11.7564 21.5494 11.6685 21.6373C11.5806 21.7252 11.5312 21.8444 11.5312 21.9687V25.5242L10.8281 24.8211C10.7846 24.7774 10.7328 24.7427 10.6759 24.719C10.6189 24.6952 10.5578 24.683 10.4961 24.6829C10.4344 24.6828 10.3733 24.6948 10.3163 24.7183C10.2592 24.7418 10.2074 24.7764 10.1637 24.8199C10.12 24.8635 10.0853 24.9152 10.0615 24.9722C10.0378 25.0291 10.0256 25.0902 10.0255 25.1519C10.0254 25.2136 10.0374 25.2747 10.0609 25.3317C10.0844 25.3888 10.1189 25.4407 10.1625 25.4844L11.6695 26.989C11.7573 27.0763 11.8762 27.1254 12 27.1254C12.1238 27.1254 12.2426 27.0763 12.3305 26.989L13.8375 25.4844C13.8812 25.4407 13.9159 25.3888 13.9395 25.3317C13.9632 25.2746 13.9753 25.2134 13.9753 25.1515C13.9753 25.0897 13.9632 25.0285 13.9395 24.9714C13.9159 24.9143 13.8812 24.8624 13.8375 24.8187C13.7938 24.775 13.7419 24.7404 13.6848 24.7167C13.6277 24.693 13.5665 24.6809 13.5047 24.6809C13.4429 24.6809 13.3817 24.693 13.3246 24.7167C13.2675 24.7404 13.2156 24.775 13.1719 24.8187ZM5.33436 9.61014L2.25468 7.83123L3.21796 7.57342C3.28167 7.56221 3.34236 7.53793 3.39623 7.50212C3.4501 7.46631 3.49597 7.41973 3.53096 7.36533C3.56596 7.31092 3.58931 7.24986 3.59955 7.18599C3.60979 7.12212 3.60671 7.05682 3.59049 6.99421C3.57426 6.93159 3.54526 6.873 3.50529 6.82214C3.46532 6.77128 3.41526 6.72924 3.35825 6.69867C3.30125 6.6681 3.23853 6.64965 3.17405 6.6445C3.10957 6.63935 3.04472 6.6476 2.98358 6.66873L0.925771 7.21951C0.864838 7.23439 0.807512 7.26135 0.757189 7.2988C0.706865 7.33624 0.664568 7.3834 0.632802 7.43748C0.571925 7.54578 0.555136 7.67337 0.585927 7.79373L1.13905 9.85154C1.16584 9.95104 1.22467 10.0389 1.30644 10.1016C1.38821 10.1643 1.48835 10.1984 1.5914 10.1984C1.63258 10.1986 1.67359 10.1931 1.71327 10.182C1.8332 10.1496 1.93537 10.071 1.99733 9.96329C2.05929 9.85562 2.07599 9.72776 2.04374 9.60779L1.78593 8.64451L4.86561 10.4211C4.93683 10.4624 5.01766 10.4842 5.09999 10.4844C5.20302 10.4842 5.30313 10.45 5.38482 10.3873C5.46651 10.3245 5.52524 10.2365 5.55192 10.137C5.5786 10.0375 5.57175 9.93193 5.53242 9.8367C5.4931 9.74146 5.42349 9.66184 5.33436 9.61014ZM22.8609 18.1484C22.8224 18.037 22.7433 17.9442 22.6394 17.8885C22.5355 17.8327 22.4145 17.8182 22.3003 17.8478C22.1862 17.8773 22.0874 17.9488 22.0236 18.048C21.9599 18.1471 21.9358 18.2667 21.9562 18.3828L22.2141 19.3461L19.1344 17.5789C19.0272 17.5228 18.9026 17.5104 18.7865 17.5441C18.6704 17.5777 18.5718 17.655 18.5113 17.7597C18.4508 17.8643 18.433 17.9883 18.4618 18.1058C18.4906 18.2232 18.5636 18.325 18.6656 18.3898L21.7453 20.1687L20.782 20.4265C20.6727 20.4562 20.5778 20.5245 20.5149 20.6188C20.4521 20.713 20.4255 20.8269 20.4401 20.9392C20.4546 21.0516 20.5094 21.1548 20.5943 21.2299C20.6791 21.305 20.7883 21.3468 20.9016 21.3476C20.9427 21.348 20.9838 21.3424 21.0234 21.3312L23.0812 20.7804C23.1409 20.7647 23.1969 20.7374 23.2459 20.7C23.295 20.6626 23.3362 20.6158 23.3672 20.5625C23.4281 20.4542 23.4448 20.3266 23.4141 20.2062L22.8609 18.1484ZM4.86561 17.5789L1.78593 19.3554L2.04374 18.3922C2.06487 18.331 2.07312 18.2662 2.06797 18.2017C2.06282 18.1372 2.04437 18.0745 2.0138 18.0175C1.98323 17.9605 1.94119 17.9104 1.89033 17.8705C1.83947 17.8305 1.78088 17.8015 1.71826 17.7853C1.65565 17.769 1.59035 17.766 1.52648 17.7762C1.46261 17.7864 1.40155 17.8098 1.34714 17.8448C1.29274 17.8798 1.24616 17.9257 1.21035 17.9795C1.17454 18.0334 1.15026 18.0941 1.13905 18.1578L0.585927 20.2062C0.555136 20.3266 0.571925 20.4542 0.632802 20.5625C0.663773 20.6158 0.704973 20.6626 0.754041 20.7C0.803109 20.7374 0.859078 20.7647 0.918739 20.7804L2.97655 21.3312C3.0162 21.3424 3.05723 21.348 3.09843 21.3476C3.21172 21.3468 3.32088 21.305 3.40573 21.2299C3.49057 21.1548 3.54534 21.0516 3.55992 20.9392C3.57451 20.8269 3.5479 20.713 3.48503 20.6188C3.42217 20.5245 3.32729 20.4562 3.21796 20.4265L2.25468 20.1687L5.33436 18.3898C5.4364 18.325 5.50942 18.2232 5.53818 18.1058C5.56695 17.9883 5.54922 17.8643 5.48872 17.7597C5.42822 17.655 5.32961 17.5777 5.2135 17.5441C5.09738 17.5104 4.97274 17.5228 4.86561 17.5789ZM18.9023 10.4844C18.9847 10.4842 19.0655 10.4624 19.1367 10.4211L22.2164 8.64451L21.9586 9.60779C21.9263 9.72776 21.943 9.85562 22.005 9.96329C22.067 10.071 22.1691 10.1496 22.2891 10.182C22.3287 10.1931 22.3697 10.1986 22.4109 10.1984C22.514 10.1984 22.6141 10.1643 22.6959 10.1016C22.7777 10.0389 22.8365 9.95104 22.8633 9.85154L23.4164 7.79373C23.4472 7.67337 23.4304 7.54578 23.3695 7.43748C23.3386 7.38412 23.2973 7.3374 23.2483 7.29999C23.1992 7.26259 23.1432 7.23524 23.0836 7.21951L21.0258 6.66873C20.9646 6.6476 20.8998 6.63935 20.8353 6.6445C20.7708 6.64965 20.7081 6.6681 20.6511 6.69867C20.5941 6.72924 20.544 6.77128 20.5041 6.82214C20.4641 6.873 20.4351 6.93159 20.4189 6.99421C20.4026 7.05682 20.3996 7.12212 20.4098 7.18599C20.42 7.24986 20.4434 7.31092 20.4784 7.36533C20.5134 7.41973 20.5593 7.46631 20.6131 7.50212C20.667 7.53793 20.7277 7.56221 20.7914 7.57342L21.7547 7.83123L18.6656 9.61014C18.5765 9.66184 18.5069 9.74146 18.4676 9.8367C18.4282 9.93193 18.4214 10.0375 18.4481 10.137C18.4747 10.2365 18.5335 10.3245 18.6152 10.3873C18.6969 10.45 18.797 10.4842 18.9 10.4844H18.9023Z" fill="#AE87F0"/>
</svg>
