<svg width="102" height="102" viewBox="0 0 102 102" fill="none" xmlns="http://www.w3.org/2000/svg">
<g opacity="0.5" filter="url(#filter0_b_4391_601)">
<rect x="1" y="1" width="100" height="100" rx="50" fill="url(#paint0_radial_4391_601)" fill-opacity="0.3"/>
<rect x="0.5" y="0.5" width="101" height="101" rx="50.5" stroke="url(#paint1_linear_4391_601)"/>
</g>
<g filter="url(#filter1_b_4391_601)">
<rect x="9" y="9" width="84" height="84" rx="42" fill="url(#paint2_radial_4391_601)" fill-opacity="0.3"/>
<rect x="8" y="8" width="86" height="86" rx="43" stroke="url(#paint3_angular_4391_601)" stroke-width="2"/>
</g>
<path d="M59.9844 45.3632L51.3906 40.3983C51.2719 40.3298 51.1371 40.2937 51 40.2937C50.8629 40.2937 50.7281 40.3298 50.6094 40.3983L42.0156 45.3671C41.897 45.4356 41.7984 45.5341 41.7299 45.6527C41.6613 45.7713 41.6251 45.9059 41.625 46.0429V55.9608C41.6251 56.0978 41.6613 56.2324 41.7299 56.351C41.7984 56.4696 41.897 56.5681 42.0156 56.6366L50.6094 61.6014C50.7289 61.6678 50.8633 61.7027 51 61.703C51.1372 61.7028 51.2719 61.6664 51.3906 61.5975L59.9844 56.6327C60.103 56.5642 60.2016 56.4657 60.2701 56.3471C60.3387 56.2285 60.3749 56.0939 60.375 55.9569V46.0389C60.3749 45.9019 60.3387 45.7674 60.2701 45.6488C60.2016 45.5302 60.103 45.4317 59.9844 45.3632ZM51 41.9804L58.0625 46.0546L51 50.0975L43.9687 46.0429L51 41.9804ZM43.1875 47.3944L50.2187 51.453V59.5702L43.1875 55.5116V47.3944ZM51.7812 59.5702V51.453L58.8125 47.4257V55.5077L51.7812 59.5702ZM49.0469 32.9686L50.2187 31.7968V37.7186C50.2187 37.9258 50.3011 38.1246 50.4476 38.2711C50.5941 38.4176 50.7928 38.4999 51 38.4999C51.2072 38.4999 51.4059 38.4176 51.5524 38.2711C51.6989 38.1246 51.7812 37.9258 51.7812 37.7186V31.7929L52.9531 32.9647C53.0258 33.0378 53.1122 33.0958 53.2074 33.1354C53.3026 33.175 53.4047 33.1953 53.5078 33.1952C53.663 33.1961 53.8149 33.1508 53.9442 33.065C54.0735 32.9792 54.1744 32.8569 54.2339 32.7135C54.2934 32.5702 54.3089 32.4124 54.2783 32.2603C54.2478 32.1081 54.1727 31.9685 54.0625 31.8593L51.5508 29.3554C51.4044 29.2098 51.2064 29.1282 51 29.1282C50.7936 29.1282 50.5956 29.2098 50.4492 29.3554L47.9375 31.8593C47.7904 32.0064 47.7077 32.2059 47.7077 32.4139C47.7077 32.622 47.7904 32.8215 47.9375 32.9686C48.0846 33.1157 48.2841 33.1984 48.4922 33.1984C48.7002 33.1984 48.8998 33.1157 49.0469 32.9686ZM52.9531 69.0311L51.7812 70.203V64.2811C51.7812 64.0739 51.6989 63.8752 51.5524 63.7287C51.4059 63.5822 51.2072 63.4999 51 63.4999C50.7928 63.4999 50.5941 63.5822 50.4476 63.7287C50.3011 63.8752 50.2187 64.0739 50.2187 64.2811V70.2069L49.0469 69.035C48.9743 68.9622 48.8881 68.9044 48.7931 68.8648C48.6982 68.8253 48.5964 68.8049 48.4936 68.8047C48.3907 68.8045 48.2889 68.8246 48.1938 68.8638C48.0987 68.903 48.0123 68.9605 47.9394 69.0331C47.8666 69.1057 47.8088 69.1919 47.7693 69.2868C47.7297 69.3818 47.7093 69.4836 47.7091 69.5864C47.7089 69.6892 47.729 69.7911 47.7682 69.8862C47.8074 69.9812 47.8649 70.0677 47.9375 70.1405L50.4492 72.6483C50.5956 72.7938 50.7936 72.8755 51 72.8755C51.2064 72.8755 51.4044 72.7938 51.5508 72.6483L54.0625 70.1405C54.1353 70.0677 54.1931 69.9812 54.2325 69.886C54.272 69.7908 54.2923 69.6888 54.2923 69.5858C54.2923 69.4828 54.272 69.3808 54.2325 69.2856C54.1931 69.1905 54.1353 69.104 54.0625 69.0311C53.9896 68.9583 53.9032 68.9005 53.808 68.8611C53.7128 68.8217 53.6108 68.8014 53.5078 68.8014C53.4048 68.8014 53.3028 68.8217 53.2076 68.8611C53.1124 68.9005 53.026 68.9583 52.9531 69.0311ZM39.8906 43.6835L34.7578 40.7186L36.3633 40.2889C36.4695 40.2703 36.5706 40.2298 36.6604 40.1701C36.7502 40.1104 36.8266 40.0328 36.8849 39.9421C36.9433 39.8515 36.9822 39.7497 36.9993 39.6432C37.0163 39.5368 37.0112 39.428 36.9842 39.3236C36.9571 39.2192 36.9088 39.1216 36.8422 39.0368C36.7755 38.9521 36.6921 38.882 36.5971 38.831C36.5021 38.7801 36.3976 38.7493 36.2901 38.7408C36.1826 38.7322 36.0745 38.7459 35.9726 38.7811L32.543 39.6991C32.4414 39.7239 32.3459 39.7688 32.262 39.8312C32.1781 39.8936 32.1076 39.9722 32.0547 40.0624C31.9532 40.2429 31.9252 40.4555 31.9766 40.6561L32.8984 44.0858C32.9431 44.2517 33.0411 44.3981 33.1774 44.5027C33.3137 44.6072 33.4806 44.6638 33.6523 44.6639C33.721 44.6642 33.7893 44.655 33.8555 44.6366C34.0553 44.5826 34.2256 44.4515 34.3289 44.2721C34.4322 44.0926 34.46 43.8795 34.4062 43.6796L33.9766 42.0741L39.1094 45.035C39.2281 45.1039 39.3628 45.1403 39.5 45.1405C39.6717 45.1402 39.8386 45.0833 39.9747 44.9787C40.1109 44.874 40.2087 44.7274 40.2532 44.5616C40.2977 44.3957 40.2863 44.2198 40.2207 44.0611C40.1552 43.9024 40.0392 43.7696 39.8906 43.6835ZM69.1016 57.9139C69.0374 57.7282 68.9056 57.5735 68.7324 57.4807C68.5592 57.3878 68.3574 57.3636 68.1672 57.4129C67.977 57.4622 67.8124 57.5813 67.7061 57.7466C67.5998 57.9118 67.5597 58.1111 67.5937 58.3046L68.0234 59.91L62.8906 56.9647C62.7121 56.8713 62.5043 56.8505 62.3108 56.9067C62.1173 56.9628 61.9529 57.0916 61.8521 57.266C61.7513 57.4405 61.7217 57.6471 61.7697 57.8429C61.8176 58.0386 61.9393 58.2082 62.1094 58.3163L67.2422 61.2811L65.6367 61.7108C65.4545 61.7603 65.2964 61.8741 65.1916 62.0312C65.0868 62.1883 65.0425 62.378 65.0668 62.5653C65.0911 62.7525 65.1824 62.9247 65.3238 63.0498C65.4652 63.1749 65.6471 63.2446 65.8359 63.246C65.9046 63.2465 65.973 63.2373 66.0391 63.2186L69.4687 62.3007C69.5682 62.2745 69.6615 62.2289 69.7432 62.1665C69.825 62.1042 69.8937 62.0263 69.9453 61.9374C70.0468 61.7569 70.0747 61.5442 70.0234 61.3436L69.1016 57.9139ZM39.1094 56.9647L33.9766 59.9257L34.4062 58.3202C34.4415 58.2183 34.4552 58.1102 34.4466 58.0028C34.438 57.8953 34.4073 57.7908 34.3563 57.6957C34.3054 57.6007 34.2353 57.5173 34.1506 57.4507C34.0658 57.3841 33.9681 57.3357 33.8638 57.3087C33.7594 57.2817 33.6506 57.2765 33.5441 57.2936C33.4377 57.3107 33.3359 57.3496 33.2452 57.4079C33.1546 57.4662 33.0769 57.5427 33.0173 57.6325C32.9576 57.7222 32.9171 57.8234 32.8984 57.9296L31.9766 61.3436C31.9252 61.5442 31.9532 61.7569 32.0547 61.9374C32.1063 62.0263 32.175 62.1042 32.2567 62.1665C32.3385 62.2289 32.4318 62.2745 32.5312 62.3007L35.9609 63.2186C36.027 63.2373 36.0954 63.2465 36.1641 63.246C36.3529 63.2446 36.5348 63.1749 36.6762 63.0498C36.8176 62.9247 36.9089 62.7525 36.9332 62.5653C36.9575 62.378 36.9132 62.1883 36.8084 62.0312C36.7036 61.8741 36.5455 61.7603 36.3633 61.7108L34.7578 61.2811L39.8906 58.3163C40.0607 58.2082 40.1824 58.0386 40.2303 57.8429C40.2783 57.6471 40.2487 57.4405 40.1479 57.266C40.047 57.0916 39.8827 56.9628 39.6892 56.9067C39.4956 56.8505 39.2879 56.8713 39.1094 56.9647ZM62.5039 45.1405C62.6411 45.1403 62.7758 45.1039 62.8945 45.035L68.0273 42.0741L67.5976 43.6796C67.5439 43.8795 67.5717 44.0926 67.675 44.2721C67.7783 44.4515 67.9485 44.5826 68.1484 44.6366C68.2146 44.655 68.2829 44.6642 68.3516 44.6639C68.5233 44.6638 68.6902 44.6072 68.8265 44.5027C68.9628 44.3981 69.0608 44.2517 69.1055 44.0858L70.0273 40.6561C70.0787 40.4555 70.0507 40.2429 69.9492 40.0624C69.8976 39.9734 69.8289 39.8956 69.7471 39.8332C69.6654 39.7709 69.5721 39.7253 69.4726 39.6991L66.043 38.7811C65.9411 38.7459 65.833 38.7322 65.7255 38.7408C65.618 38.7493 65.5135 38.7801 65.4185 38.831C65.3235 38.882 65.2401 38.9521 65.1735 39.0368C65.1068 39.1216 65.0585 39.2192 65.0315 39.3236C65.0044 39.428 64.9993 39.5368 65.0163 39.6432C65.0334 39.7497 65.0723 39.8515 65.1307 39.9421C65.189 40.0328 65.2654 40.1104 65.3552 40.1701C65.445 40.2298 65.5462 40.2703 65.6523 40.2889L67.2578 40.7186L62.1094 43.6835C61.9608 43.7696 61.8448 43.9024 61.7793 44.0611C61.7137 44.2198 61.7023 44.3957 61.7468 44.5616C61.7912 44.7274 61.8891 44.874 62.0253 44.9787C62.1614 45.0833 62.3283 45.1402 62.5 45.1405H62.5039Z" fill="#AC91DA"/>
<circle cx="18.0461" cy="78.5662" r="2" fill="#AC91D9"/>
<circle cx="81.4901" cy="20.6707" r="2" fill="#AC91D9"/>
<defs>
<filter id="filter0_b_4391_601" x="-10" y="-10" width="122" height="122" filterUnits="userSpaceOnUse" color-interpolation-filters="sRGB">
<feFlood flood-opacity="0" result="BackgroundImageFix"/>
<feGaussianBlur in="BackgroundImageFix" stdDeviation="5"/>
<feComposite in2="SourceAlpha" operator="in" result="effect1_backgroundBlur_4391_601"/>
<feBlend mode="normal" in="SourceGraphic" in2="effect1_backgroundBlur_4391_601" result="shape"/>
</filter>
<filter id="filter1_b_4391_601" x="-3" y="-3" width="108" height="108" filterUnits="userSpaceOnUse" color-interpolation-filters="sRGB">
<feFlood flood-opacity="0" result="BackgroundImageFix"/>
<feGaussianBlur in="BackgroundImageFix" stdDeviation="5"/>
<feComposite in2="SourceAlpha" operator="in" result="effect1_backgroundBlur_4391_601"/>
<feBlend mode="normal" in="SourceGraphic" in2="effect1_backgroundBlur_4391_601" result="shape"/>
</filter>
<radialGradient id="paint0_radial_4391_601" cx="0" cy="0" r="1" gradientUnits="userSpaceOnUse" gradientTransform="translate(51.1901 64.9896) rotate(-51.6751) scale(111.287 143.428)">
<stop offset="0.322813" stop-color="#120725"/>
<stop offset="1" stop-color="#9361E9"/>
</radialGradient>
<linearGradient id="paint1_linear_4391_601" x1="1" y1="1" x2="120.265" y2="65.2266" gradientUnits="userSpaceOnUse">
<stop stop-color="#1D0C37"/>
<stop offset="0.535692" stop-color="#5E428E"/>
<stop offset="1" stop-color="#1D0C37"/>
</linearGradient>
<radialGradient id="paint2_radial_4391_601" cx="0" cy="0" r="1" gradientUnits="userSpaceOnUse" gradientTransform="translate(51.1597 62.7513) rotate(-51.6751) scale(93.4813 120.48)">
<stop offset="0.322813" stop-color="#120725"/>
<stop offset="1" stop-color="#9361E9"/>
</radialGradient>
<radialGradient id="paint3_angular_4391_601" cx="0" cy="0" r="1" gradientUnits="userSpaceOnUse" gradientTransform="translate(51 51) rotate(-47.07) scale(73.9975 80.5689)">
<stop stop-color="#1D0C37"/>
<stop offset="0.512554" stop-color="#5E428E"/>
<stop offset="0.512654" stop-color="#1D0C37"/>
<stop offset="1" stop-color="#5E428E"/>
</radialGradient>
</defs>
</svg>
