<svg width="35" height="48" viewBox="0 0 35 48" fill="none" xmlns="http://www.w3.org/2000/svg">
<path d="M1.167 36.672C6.88433 32.4053 11.407 28.544 14.735 25.088C18.063 21.5893 19.727 18.3253 19.727 15.296C19.727 14.272 19.4923 13.4827 19.023 12.928C18.5963 12.3733 18.0203 12.096 17.295 12.096C16.4417 12.096 15.759 12.544 15.247 13.44C14.7777 14.2933 14.607 15.616 14.735 17.408H0.975C1.103 13.44 1.95633 10.176 3.535 7.616C5.15633 5.056 7.247 3.17866 9.807 1.984C12.367 0.789331 15.183 0.191998 18.255 0.191998C23.7163 0.191998 27.7057 1.51466 30.223 4.16C32.783 6.76266 34.063 10.112 34.063 14.208C34.063 18.5173 32.6763 22.5707 29.903 26.368C27.1723 30.1227 23.7377 33.3013 19.599 35.904H34.255V47.36H1.167V36.672Z" fill="#AE87F0"/>
</svg>
