<svg width="35" height="49" viewBox="0 0 35 49" fill="none" xmlns="http://www.w3.org/2000/svg">
<path d="M1.1925 15.872C1.3205 10.7947 2.7925 6.912 5.6085 4.224C8.46717 1.536 12.4992 0.191998 17.7045 0.191998C21.0752 0.191998 23.9552 0.767998 26.3445 1.92C28.7338 3.072 30.5258 4.62933 31.7205 6.592C32.9578 8.55467 33.5765 10.7733 33.5765 13.248C33.5765 16.2347 32.8725 18.5813 31.4645 20.288C30.0565 21.952 28.4778 23.0827 26.7285 23.68V23.936C31.8485 25.856 34.4085 29.4187 34.4085 34.624C34.4085 37.3547 33.7685 39.7653 32.4885 41.856C31.2085 43.9467 29.3738 45.568 26.9845 46.72C24.6378 47.872 21.8432 48.448 18.6005 48.448C13.0538 48.448 8.70183 47.1253 5.5445 44.48C2.38717 41.8347 0.765833 37.696 0.6805 32.064H14.5045C14.4192 33.6 14.6325 34.7733 15.1445 35.584C15.6992 36.352 16.6378 36.736 17.9605 36.736C18.7285 36.736 19.3685 36.4587 19.8805 35.904C20.3925 35.3067 20.6485 34.5387 20.6485 33.6C20.6485 32.4053 20.2432 31.5093 19.4325 30.912C18.6645 30.272 17.3418 29.952 15.4645 29.952H13.0965V18.496H15.4005C18.3018 18.6667 19.7525 17.5147 19.7525 15.04C19.7525 13.9733 19.5178 13.184 19.0485 12.672C18.6218 12.16 18.0672 11.904 17.3845 11.904C15.8058 11.904 15.0165 13.2267 15.0165 15.872H1.1925Z" fill="#AE87F0"/>
</svg>
